# xmcd
#
# Track frame offsets:
# 150
# 15278
# 27820
# 44460
# 59420
# 77403
# 90918
# 110331
# 125637
# 138928
# 157374
# 170460
# 183173
# 198058
#
# Disc length: 2848 seconds
#
#
# Revision: 6
# Processed by: cddbd v1.5.2PL0 Copyright (c) Steve Scherf et al.
# Submitted via: FreeRIP 2.945 
#
DISCID=a70b1e0e
DTITLE=Mayck and Lyan - Defendendo A Tradição
DYEAR=2006
DGENRE=Sertanejo
TTITLE0=Pra Não Te Perder
TTITLE1=Viola Na Cachola
TTITLE2=Prisioneiro
TTITLE3=Em Tempo De Avanço/Na barba do leão
TTITLE4=A Correnteza
TTITLE5=Defendendo A Tradição
TTITLE6=Meu Erro
TTITLE7=Armadilha
TTITLE8=Modão De Cabra Macho
TTITLE9=Segundo Sol
TTITLE10=O Preço Da Glória
TTITLE11=Deixa A Poiera Voar
TTITLE12=Caboclo Sertanejo
TTITLE13=Querida
EXTD=2006
EXTT0=
EXTT1=
EXTT2=
EXTT3=
EXTT4=
EXTT5=
EXTT6=
EXTT7=
EXTT8=
EXTT9=
EXTT10=
EXTT11=
EXTT12=
EXTT13=
PLAYORDER=
